<?xml version="1.0" standalone="no"?>
<svg xmlns:xlink="http://www.w3.org/1999/xlink" id="wave" style="transform:rotate(180deg); transition: 0.3s" viewBox="0 0 1440 170" version="1.1" xmlns="http://www.w3.org/2000/svg"><defs><linearGradient id="sw-gradient-0" x1="0" x2="0" y1="1" y2="0"><stop stop-color="rgba(245, 245, 245, 1)" offset="0%"/><stop stop-color="rgba(245, 245, 245, 1)" offset="100%"/></linearGradient></defs><path style="transform:translate(0, 0px); opacity:1" fill="url(#sw-gradient-0)" d="M0,119L60,116.2C120,113,240,108,360,113.3C480,119,600,136,720,127.5C840,119,960,85,1080,65.2C1200,45,1320,40,1440,45.3C1560,51,1680,68,1800,76.5C1920,85,2040,85,2160,85C2280,85,2400,85,2520,76.5C2640,68,2760,51,2880,48.2C3000,45,3120,57,3240,62.3C3360,68,3480,68,3600,76.5C3720,85,3840,102,3960,113.3C4080,125,4200,130,4320,124.7C4440,119,4560,102,4680,82.2C4800,62,4920,40,5040,45.3C5160,51,5280,85,5400,85C5520,85,5640,51,5760,51C5880,51,6000,85,6120,96.3C6240,108,6360,96,6480,76.5C6600,57,6720,28,6840,28.3C6960,28,7080,57,7200,68C7320,79,7440,74,7560,70.8C7680,68,7800,68,7920,70.8C8040,74,8160,79,8280,79.3C8400,79,8520,74,8580,70.8L8640,68L8640,170L8580,170C8520,170,8400,170,8280,170C8160,170,8040,170,7920,170C7800,170,7680,170,7560,170C7440,170,7320,170,7200,170C7080,170,6960,170,6840,170C6720,170,6600,170,6480,170C6360,170,6240,170,6120,170C6000,170,5880,170,5760,170C5640,170,5520,170,5400,170C5280,170,5160,170,5040,170C4920,170,4800,170,4680,170C4560,170,4440,170,4320,170C4200,170,4080,170,3960,170C3840,170,3720,170,3600,170C3480,170,3360,170,3240,170C3120,170,3000,170,2880,170C2760,170,2640,170,2520,170C2400,170,2280,170,2160,170C2040,170,1920,170,1800,170C1680,170,1560,170,1440,170C1320,170,1200,170,1080,170C960,170,840,170,720,170C600,170,480,170,360,170C240,170,120,170,60,170L0,170Z"/></svg>